<svg xmlns="http://www.w3.org/2000/svg" version="1.1" xmlns:xlink="http://www.w3.org/1999/xlink" xmlns:svgjs="http://svgjs.dev/svgjs" width="1500" height="515" viewBox="0 0 1500 515"><g transform="matrix(1,0,0,1,-0.9090909090909918,-1.299215193697762)"><svg viewBox="0 0 396 136" data-background-color="#dfdad6" preserveAspectRatio="xMidYMid meet" height="515" width="1500" xmlns="http://www.w3.org/2000/svg" xmlns:xlink="http://www.w3.org/1999/xlink"><g id="tight-bounds" transform="matrix(1,0,0,1,0.2400000000000091,0.34309372105417424)"><svg viewBox="0 0 395.52 135.31381255789165" height="135.31381255789165" width="395.52"><g><svg viewBox="0 0 619.2250739468435 211.84694980579943" height="135.31381255789165" width="395.52"><g transform="matrix(1,0,0,1,223.70507394684353,59.81556324901996)"><svg viewBox="0 0 395.52 92.2158233077595" height="92.2158233077595" width="395.52"><g id="textblocktransform"><svg viewBox="0 0 395.52 92.2158233077595" height="92.2158233077595" width="395.52" id="textblock"><g><svg viewBox="0 0 395.52 50.23011293415725" height="50.23011293415725" width="395.52"><g transform="matrix(1,0,0,1,0,0)"><svg width="395.52" viewBox="1.98 -42.94 343.7 43.65" height="50.23011293415725" data-palette-color="#e33e33"><path d="M35.91-26.44L35.91-26.44 31.74-24.68Q31.25-26.27 30.43-27.59 29.61-28.91 28.48-29.85 27.34-30.79 25.9-31.31 24.46-31.84 22.75-31.84L22.75-31.84Q20.92-31.84 19.4-31.24 17.87-30.64 16.66-29.59 15.45-28.54 14.55-27.15 13.65-25.76 13.04-24.18 12.43-22.61 12.13-20.92 11.84-19.24 11.84-17.63L11.84-17.63Q11.84-15.06 12.44-12.52 13.04-9.99 14.34-7.96 15.65-5.93 17.72-4.68 19.8-3.42 22.75-3.42L22.75-3.42Q24.32-3.42 25.71-3.94 27.1-4.47 28.23-5.38 29.37-6.3 30.22-7.54 31.08-8.79 31.59-10.23L31.59-10.23 35.82-8.54Q34.89-6.23 33.28-4.48 31.67-2.73 29.6-1.59 27.54-0.44 25.18 0.13 22.83 0.71 20.43 0.71L20.43 0.71Q17.85 0.71 15.47 0.07 13.09-0.56 11.04-1.73 8.98-2.91 7.31-4.57 5.64-6.23 4.46-8.25 3.27-10.28 2.62-12.66 1.98-15.04 1.98-17.63L1.98-17.63Q1.98-20.21 2.62-22.6 3.27-24.98 4.46-27.01 5.64-29.05 7.31-30.71 8.98-32.37 11.04-33.54 13.09-34.72 15.47-35.35 17.85-35.99 20.43-35.99L20.43-35.99Q22.92-35.99 25.31-35.4 27.69-34.81 29.74-33.63 31.79-32.45 33.39-30.65 34.99-28.86 35.91-26.44ZM69.43-28.2L69.43 0 61.18 0 61.18-3.37Q59.71-1.37 57.65-0.4 55.59 0.56 53.12 0.56L53.12 0.56Q49.9 0.56 47.36-0.59 44.82-1.73 43.06-3.72 41.31-5.71 40.38-8.4 39.45-11.08 39.45-14.16L39.45-14.16Q39.45-17.24 40.38-19.92 41.31-22.61 43.06-24.6 44.82-26.59 47.36-27.73 49.9-28.88 53.12-28.88L53.12-28.88Q54.76-28.88 56.24-28.39 57.71-27.91 58.95-27.01 60.18-26.12 61.12-24.87 62.06-23.61 62.6-22.07L62.6-22.07 66.26-28.2 69.43-28.2ZM61.13-14.16L61.13-14.16Q61.13-15.26 61.02-16.48 60.91-17.7 60.64-18.9 60.37-20.09 59.9-21.18 59.42-22.27 58.68-23.11 57.93-23.95 56.88-24.44 55.83-24.93 54.44-24.93L54.44-24.93Q53.05-24.93 52.02-24.43 51-23.93 50.27-23.08 49.53-22.24 49.06-21.14 48.58-20.04 48.31-18.85 48.04-17.65 47.93-16.44 47.82-15.23 47.82-14.16L47.82-14.16Q47.82-13.09 47.93-11.87 48.04-10.64 48.31-9.45 48.58-8.25 49.06-7.15 49.53-6.05 50.27-5.21 51-4.37 52.02-3.87 53.05-3.37 54.44-3.37L54.44-3.37Q55.71-3.37 56.7-3.89 57.69-4.42 58.43-5.3 59.18-6.18 59.69-7.3 60.2-8.42 60.52-9.62 60.84-10.82 60.98-12 61.13-13.18 61.13-14.16ZM100.29-25.71L100.29-25.71 95.65-18.02Q95.36-18.99 94.89-20.21 94.43-21.44 93.75-22.5 93.06-23.56 92.11-24.28 91.16-25 89.91-25L89.91-25Q88.76-25 87.92-24.41 87.08-23.83 86.49-22.89 85.91-21.95 85.53-20.76 85.15-19.58 84.94-18.37 84.74-17.16 84.66-16.05 84.59-14.94 84.59-14.14L84.59-14.14 84.59 0 76.31 0 76.31-28.2 79.49-28.2 82.83-21.63Q83.52-23.22 84.39-24.55 85.27-25.88 86.42-26.84 87.57-27.81 89.02-28.34 90.47-28.88 92.3-28.88L92.3-28.88Q93.26-28.88 94.43-28.72 95.6-28.56 96.72-28.19 97.85-27.81 98.8-27.2 99.75-26.59 100.29-25.71ZM109.78-13.38L109.78-13.38Q111.3-13.04 112.81-12.84 114.32-12.65 115.86-12.65L115.86-12.65Q117.47-12.65 118.85-12.95 120.23-13.26 121.24-13.98 122.26-14.7 122.84-15.89 123.43-17.09 123.43-18.87L123.43-18.87Q123.43-20.31 123.04-21.51 122.65-22.71 121.88-23.56 121.11-24.41 119.99-24.89 118.86-25.37 117.38-25.37L117.38-25.37Q115.98-25.37 114.87-24.85 113.76-24.34 112.92-23.47 112.08-22.61 111.48-21.46 110.88-20.31 110.49-19.07 110.1-17.82 109.93-16.55 109.76-15.28 109.76-14.16L109.76-14.16Q109.76-13.96 109.76-13.77 109.76-13.57 109.78-13.38ZM130.12-18.95L130.12-18.95Q130.12-17.21 129.56-15.86 129-14.5 128.03-13.48 127.07-12.45 125.8-11.74 124.53-11.04 123.09-10.58 121.65-10.13 120.12-9.94 118.6-9.74 117.16-9.74L117.16-9.74Q115.32-9.74 113.54-10 111.76-10.25 110.03-10.82L110.03-10.82Q110.3-9.2 110.88-7.75 111.47-6.3 112.44-5.21 113.42-4.13 114.85-3.49 116.28-2.86 118.23-2.86L118.23-2.86Q119.52-2.86 120.7-3.25 121.87-3.64 122.84-4.35 123.82-5.05 124.57-6.03 125.31-7.01 125.77-8.2L125.77-8.2 129.34-6.88Q128.53-4.96 127.13-3.55 125.72-2.15 123.95-1.23 122.18-0.32 120.2 0.12 118.21 0.56 116.25 0.56L116.25 0.56Q113.03 0.56 110.3-0.52 107.56-1.61 105.58-3.56 103.61-5.52 102.48-8.23 101.36-10.94 101.36-14.16L101.36-14.16Q101.36-17.38 102.48-20.09 103.61-22.8 105.58-24.76 107.56-26.71 110.3-27.8 113.03-28.88 116.25-28.88L116.25-28.88Q117.81-28.88 119.45-28.66 121.09-28.44 122.62-27.97 124.16-27.49 125.53-26.73 126.9-25.98 127.91-24.87 128.92-23.75 129.52-22.29 130.12-20.83 130.12-18.95ZM142.06-13.38L142.06-13.38Q143.57-13.04 145.08-12.84 146.6-12.65 148.13-12.65L148.13-12.65Q149.75-12.65 151.13-12.95 152.5-13.26 153.52-13.98 154.53-14.7 155.12-15.89 155.7-17.09 155.7-18.87L155.7-18.87Q155.7-20.31 155.31-21.51 154.92-22.71 154.15-23.56 153.38-24.41 152.26-24.89 151.14-25.37 149.65-25.37L149.65-25.37Q148.26-25.37 147.15-24.85 146.03-24.34 145.19-23.47 144.35-22.61 143.75-21.46 143.15-20.31 142.76-19.07 142.37-17.82 142.2-16.55 142.03-15.28 142.03-14.16L142.03-14.16Q142.03-13.96 142.03-13.77 142.03-13.57 142.06-13.38ZM162.39-18.95L162.39-18.95Q162.39-17.21 161.83-15.86 161.27-14.5 160.3-13.48 159.34-12.45 158.07-11.74 156.8-11.04 155.36-10.58 153.92-10.13 152.39-9.94 150.87-9.74 149.43-9.74L149.43-9.74Q147.6-9.74 145.82-10 144.03-10.25 142.3-10.82L142.3-10.82Q142.57-9.2 143.15-7.75 143.74-6.3 144.72-5.21 145.69-4.13 147.12-3.49 148.55-2.86 150.5-2.86L150.5-2.86Q151.8-2.86 152.97-3.25 154.14-3.64 155.12-4.35 156.09-5.05 156.84-6.03 157.58-7.01 158.05-8.2L158.05-8.2 161.61-6.88Q160.81-4.96 159.4-3.55 158-2.15 156.23-1.23 154.46-0.32 152.47 0.12 150.48 0.56 148.53 0.56L148.53 0.56Q145.3 0.56 142.57-0.52 139.83-1.61 137.86-3.56 135.88-5.52 134.76-8.23 133.63-10.94 133.63-14.16L133.63-14.16Q133.63-17.38 134.76-20.09 135.88-22.8 137.86-24.76 139.83-26.71 142.57-27.8 145.3-28.88 148.53-28.88L148.53-28.88Q150.09-28.88 151.72-28.66 153.36-28.44 154.9-27.97 156.44-27.49 157.8-26.73 159.17-25.98 160.18-24.87 161.2-23.75 161.79-22.29 162.39-20.83 162.39-18.95ZM191.52-25.71L191.52-25.71 186.88-18.02Q186.58-18.99 186.12-20.21 185.66-21.44 184.97-22.5 184.29-23.56 183.34-24.28 182.38-25 181.14-25L181.14-25Q179.99-25 179.15-24.41 178.31-23.83 177.72-22.89 177.14-21.95 176.76-20.76 176.38-19.58 176.17-18.37 175.96-17.16 175.89-16.05 175.82-14.94 175.82-14.14L175.82-14.14 175.82 0 167.54 0 167.54-28.2 170.72-28.2 174.06-21.63Q174.74-23.22 175.62-24.55 176.5-25.88 177.65-26.84 178.8-27.81 180.25-28.34 181.7-28.88 183.53-28.88L183.53-28.88Q184.48-28.88 185.66-28.72 186.83-28.56 187.95-28.19 189.07-27.81 190.03-27.2 190.98-26.59 191.52-25.71ZM235.14-21.22L235.14-21.22 231.57-19.8Q230.72-22.49 228.72-23.93 226.72-25.37 223.91-25.37L223.91-25.37Q222.39-25.37 221.21-24.89 220.03-24.41 219.14-23.58 218.24-22.75 217.62-21.66 217-20.56 216.61-19.31 216.22-18.07 216.05-16.74 215.88-15.41 215.88-14.16L215.88-14.16Q215.88-12.82 216.02-11.45 216.17-10.08 216.52-8.83 216.88-7.57 217.46-6.48 218.05-5.4 218.94-4.59 219.83-3.78 221.06-3.32 222.3-2.86 223.91-2.86L223.91-2.86Q225.2-2.86 226.37-3.25 227.55-3.64 228.52-4.35 229.5-5.05 230.26-6.03 231.01-7.01 231.45-8.2L231.45-8.2 235.04-6.88Q234.24-4.96 232.9-3.55 231.57-2.15 229.89-1.23 228.21-0.32 226.28 0.12 224.35 0.56 222.37 0.56L222.37 0.56Q219.17 0.56 216.44-0.52 213.7-1.61 211.71-3.58 209.72-5.54 208.6-8.24 207.48-10.94 207.48-14.16L207.48-14.16Q207.48-17.41 208.59-20.12 209.7-22.83 211.68-24.78 213.65-26.73 216.39-27.81 219.12-28.88 222.37-28.88L222.37-28.88Q224.42-28.88 226.37-28.43 228.33-27.98 230-27.04 231.67-26.1 233-24.66 234.33-23.22 235.14-21.22ZM263.99-25.71L263.99-25.71 259.36-18.02Q259.06-18.99 258.6-20.21 258.13-21.44 257.45-22.5 256.77-23.56 255.81-24.28 254.86-25 253.62-25L253.62-25Q252.47-25 251.63-24.41 250.79-23.83 250.2-22.89 249.61-21.95 249.24-20.76 248.86-19.58 248.65-18.37 248.44-17.16 248.37-16.05 248.3-14.94 248.3-14.14L248.3-14.14 248.3 0 240.02 0 240.02-28.2 243.19-28.2 246.54-21.63Q247.22-23.22 248.1-24.55 248.98-25.88 250.13-26.84 251.27-27.81 252.73-28.34 254.18-28.88 256.01-28.88L256.01-28.88Q256.96-28.88 258.13-28.72 259.31-28.56 260.43-28.19 261.55-27.81 262.5-27.2 263.46-26.59 263.99-25.71ZM295.27-28.2L295.27 0 287.01 0 287.01-3.37Q285.55-1.37 283.49-0.4 281.42 0.56 278.96 0.56L278.96 0.56Q275.73 0.56 273.2-0.59 270.66-1.73 268.9-3.72 267.14-5.71 266.21-8.4 265.29-11.08 265.29-14.16L265.29-14.16Q265.29-17.24 266.21-19.92 267.14-22.61 268.9-24.6 270.66-26.59 273.2-27.73 275.73-28.88 278.96-28.88L278.96-28.88Q280.59-28.88 282.07-28.39 283.55-27.91 284.78-27.01 286.01-26.12 286.95-24.87 287.89-23.61 288.43-22.07L288.43-22.07 292.09-28.2 295.27-28.2ZM286.96-14.16L286.96-14.16Q286.96-15.26 286.85-16.48 286.75-17.7 286.48-18.9 286.21-20.09 285.73-21.18 285.26-22.27 284.51-23.11 283.77-23.95 282.72-24.44 281.67-24.93 280.28-24.93L280.28-24.93Q278.88-24.93 277.86-24.43 276.83-23.93 276.1-23.08 275.37-22.24 274.89-21.14 274.42-20.04 274.15-18.85 273.88-17.65 273.77-16.44 273.66-15.23 273.66-14.16L273.66-14.16Q273.66-13.09 273.77-11.87 273.88-10.64 274.15-9.45 274.42-8.25 274.89-7.15 275.37-6.05 276.1-5.21 276.83-4.37 277.86-3.87 278.88-3.37 280.28-3.37L280.28-3.37Q281.54-3.37 282.53-3.89 283.52-4.42 284.27-5.3 285.01-6.18 285.52-7.3 286.04-8.42 286.35-9.62 286.67-10.82 286.82-12 286.96-13.18 286.96-14.16ZM328.49-39.79L328.49-39.79 323.83-32.08Q323.75-33.01 323.49-34.22 323.22-35.42 322.59-36.5 321.97-37.57 320.89-38.32 319.8-39.06 318.11-39.06L318.11-39.06Q316.38-39.06 315.33-38.38 314.28-37.7 313.72-36.33 313.16-34.96 312.96-32.93 312.77-30.91 312.77-28.22L312.77-28.22 321.31-28.22 321.31-24.95 312.77-24.95 312.77 0 304.49 0 304.49-24.95 299.36-24.95 299.36-28.22 304.49-28.22Q304.49-32.1 305.32-34.89 306.15-37.67 307.84-39.47 309.52-41.26 312.07-42.1 314.62-42.94 318.04-42.94L318.04-42.94Q320.09-42.94 321.72-42.66 323.34-42.38 324.6-41.93 325.85-41.48 326.81-40.92 327.76-40.36 328.49-39.79ZM337.13-24.93L337.13 0 328.85 0 328.85-24.93 323.73-24.93 323.73-28.2 328.85-28.2 328.85-38.57 337.13-38.57 337.13-28.2 345.68-28.2 345.68-24.93 337.13-24.93Z" opacity="1" transform="matrix(1,0,0,1,0,0)" fill="#e33e33" class="wordmark-text-0" data-fill-palette-color="primary" id="text-0"></path></svg></g></svg></g><g transform="matrix(1,0,0,1,0,62.088237075201356)"><svg viewBox="0 0 232.20979199999996 30.127586232558144" height="30.127586232558144" width="232.20979199999996"><g transform="matrix(1,0,0,1,0,0)"><svg width="232.20979199999996" viewBox="2.08 -33.75 340.38 44.17" height="30.127586232558144" data-palette-color="#40e0d0"><path d="M18.4 0.63L18.4 0.63Q15.03 0.63 12.07-0.64 9.1-1.91 6.86-4.13 4.62-6.35 3.35-9.31 2.08-12.26 2.08-15.63L2.08-15.63Q2.08-18.99 3.35-21.94 4.62-24.9 6.86-27.12 9.1-29.34 12.07-30.61 15.03-31.88 18.4-31.88L18.4-31.88Q21.74-31.88 24.65-30.64 27.57-29.41 29.79-27.26L29.79-27.26 28.65-22.47Q27.05-25.03 24.36-26.58 21.67-28.13 18.4-28.13L18.4-28.13Q14.97-28.13 12.2-26.44 9.44-24.76 7.81-21.93 6.18-19.1 6.18-15.63L6.18-15.63Q6.18-12.19 7.81-9.34 9.44-6.49 12.2-4.81 14.97-3.13 18.4-3.13L18.4-3.13Q21.7-3.13 24.38-4.69 27.05-6.25 28.65-8.78L28.65-8.78 29.79-3.99Q27.57-1.88 24.65-0.63 21.74 0.63 18.4 0.63ZM38.33 0L34.58 0 34.58-20.83 38.05-20.83 38.05-17.01Q39.16-18.85 41-19.95 42.84-21.04 45.38-21.04L45.38-21.04 46.32-17.29Q45.66-17.5 44.79-17.5L44.79-17.5Q41.87-17.5 40.1-15.64 38.33-13.78 38.33-10.35L38.33-10.35 38.33 0ZM59.13 0.28L59.13 0.28Q56.28 0.28 53.92-1.16 51.56-2.6 50.15-5.03 48.75-7.47 48.75-10.42L48.75-10.42Q48.75-13.37 50.15-15.8 51.56-18.23 53.92-19.67 56.28-21.11 59.13-21.11L59.13-21.11Q61.28-21.11 63.17-20.31 65.06-19.51 66.45-18.09L66.45-18.09 66.45-20.83 69.93-20.83 69.93 0 66.45 0 66.45-2.74Q65.06-1.35 63.17-0.54 61.28 0.28 59.13 0.28ZM59.61-3.13L59.61-3.13Q61.59-3.13 63.21-4.11 64.82-5.1 65.78-6.75 66.73-8.4 66.73-10.42L66.73-10.42Q66.73-12.43 65.78-14.08 64.82-15.73 63.21-16.72 61.59-17.71 59.61-17.71L59.61-17.71Q57.63-17.71 56.02-16.72 54.4-15.73 53.45-14.08 52.5-12.43 52.5-10.42L52.5-10.42Q52.5-8.4 53.45-6.75 54.4-5.1 56.02-4.11 57.63-3.13 59.61-3.13ZM82.77 0L79.02 0 79.02-17.71 74.3-17.71 74.3-20.83 79.12-20.83 79.12-26.81Q79.12-30.21 81.14-31.98 83.15-33.75 85.93-33.75L85.93-33.75Q86.97-33.75 88.07-33.51 89.16-33.26 90.13-32.67L90.13-32.67 89.23-29.03Q87.77-30.63 85.83-30.63L85.83-30.63Q84.65-30.63 83.66-29.83 82.67-29.03 82.67-26.74L82.67-26.74 82.67-20.83 87.84-20.83 87.84-17.71 82.77-17.71 82.77 0ZM98.39 0L94.64 0 94.64-17.71 89.92-17.71 89.92-20.83 94.75-20.83 94.75-27.78 98.29-27.78 98.29-20.83 103.46-20.83 103.46-17.71 98.39-17.71 98.39 0ZM121.44 10.42L117.38 10.42 124.15-3.06 115.33-20.83 119.57-20.83 124.01-11.81Q124.6-10.59 125.16-9.41 125.71-8.23 126.27-6.56L126.27-6.56Q126.86-8.23 127.4-9.43 127.94-10.63 128.56-11.81L128.56-11.81 133.08-20.83 137.07-20.83 121.44 10.42ZM150.33 0.42L150.33 0.42Q147.31 0.42 144.81-1.04 142.31-2.5 140.83-4.97 139.36-7.43 139.36-10.42L139.36-10.42Q139.36-13.44 140.83-15.89 142.31-18.33 144.81-19.79 147.31-21.25 150.33-21.25L150.33-21.25Q153.39-21.25 155.87-19.79 158.35-18.33 159.83-15.89 161.3-13.44 161.3-10.42L161.3-10.42Q161.3-7.43 159.83-4.97 158.35-2.5 155.87-1.04 153.39 0.42 150.33 0.42ZM150.33-3.13L150.33-3.13Q152.34-3.13 153.98-4.11 155.61-5.1 156.58-6.75 157.55-8.4 157.55-10.42L157.55-10.42Q157.55-12.43 156.58-14.08 155.61-15.73 153.98-16.72 152.34-17.71 150.33-17.71L150.33-17.71Q148.32-17.71 146.68-16.72 145.05-15.73 144.08-14.08 143.11-12.43 143.11-10.42L143.11-10.42Q143.11-8.4 144.08-6.75 145.05-5.1 146.68-4.11 148.32-3.13 150.33-3.13ZM174.46 0.42L174.46 0.42Q172.27 0.42 170.36-0.68 168.45-1.77 167.27-3.85 166.09-5.94 166.09-8.85L166.09-8.85 166.09-20.83 169.84-20.83 169.84-9.38Q169.84-6.91 171.32-5.02 172.79-3.13 175.47-3.13L175.47-3.13Q177.65-3.13 179.37-4.7 181.09-6.28 181.09-9.27L181.09-9.27 181.09-20.83 184.84-20.83 184.84 0 181.37 0 181.37-3.37Q180.22-1.53 178.4-0.56 176.58 0.42 174.46 0.42ZM195.26 0L191.51 0 191.51-20.83 194.98-20.83 194.98-17.01Q196.09-18.85 197.93-19.95 199.77-21.04 202.3-21.04L202.3-21.04 203.24-17.29Q202.58-17.5 201.71-17.5L201.71-17.5Q198.8-17.5 197.03-15.64 195.26-13.78 195.26-10.35L195.26-10.35 195.26 0ZM227.13 0.42L227.13 0.42Q224.07 0.42 221.57-1.04 219.07-2.5 217.58-4.97 216.08-7.43 216.08-10.42L216.08-10.42Q216.08-13.4 217.58-15.87 219.07-18.33 221.57-19.79 224.07-21.25 227.13-21.25L227.13-21.25Q229.38-21.25 231.36-20.45 233.34-19.65 234.83-18.33L234.83-18.33 233.69-13.61Q232.82-15.35 231.07-16.53 229.31-17.71 227.09-17.71L227.09-17.71Q225.08-17.71 223.43-16.72 221.78-15.73 220.81-14.08 219.83-12.43 219.83-10.42L219.83-10.42Q219.83-8.44 220.81-6.77 221.78-5.1 223.43-4.11 225.08-3.13 227.09-3.13L227.09-3.13Q229.31-3.13 231.07-4.27 232.82-5.42 233.69-7.22L233.69-7.22 234.83-2.5Q233.34-1.18 231.36-0.38 229.38 0.42 227.13 0.42ZM248.34 0.28L248.34 0.28Q245.49 0.28 243.13-1.16 240.77-2.6 239.36-5.03 237.96-7.47 237.96-10.42L237.96-10.42Q237.96-13.37 239.36-15.8 240.77-18.23 243.13-19.67 245.49-21.11 248.34-21.11L248.34-21.11Q250.49-21.11 252.38-20.31 254.28-19.51 255.66-18.09L255.66-18.09 255.66-20.83 259.14-20.83 259.14 0 255.66 0 255.66-2.74Q254.28-1.35 252.38-0.54 250.49 0.28 248.34 0.28ZM248.82-3.13L248.82-3.13Q250.8-3.13 252.42-4.11 254.03-5.1 254.99-6.75 255.94-8.4 255.94-10.42L255.94-10.42Q255.94-12.43 254.99-14.08 254.03-15.73 252.42-16.72 250.8-17.71 248.82-17.71L248.82-17.71Q246.85-17.71 245.23-16.72 243.62-15.73 242.66-14.08 241.71-12.43 241.71-10.42L241.71-10.42Q241.71-8.4 242.66-6.75 243.62-5.1 245.23-4.11 246.85-3.13 248.82-3.13ZM269.55 0L265.8 0 265.8-20.83 269.27-20.83 269.27-17.01Q270.38-18.85 272.22-19.95 274.06-21.04 276.6-21.04L276.6-21.04 277.54-17.29Q276.88-17.5 276.01-17.5L276.01-17.5Q273.09-17.5 271.32-15.64 269.55-13.78 269.55-10.35L269.55-10.35 269.55 0ZM291.35 0.42L291.35 0.42Q288.09 0.42 285.5-1.04 282.92-2.5 281.44-5.02 279.97-7.53 279.97-10.63L279.97-10.63Q279.97-13.58 281.39-15.99 282.81-18.4 285.23-19.83 287.64-21.25 290.56-21.25L290.56-21.25Q293.44-21.25 295.83-19.88 298.23-18.51 299.65-16.18 301.08-13.85 301.08-10.9L301.08-10.9 301.08-9.38 287.47-9.38Q286.56-9.38 285.62-9.44 284.69-9.51 283.78-9.65L283.78-9.65Q284.17-6.88 286.3-5 288.44-3.13 291.39-3.13L291.39-3.13Q293.37-3.13 295.07-4.03 296.77-4.93 297.81-6.42L297.81-6.42 298.85-2.15Q297.36-0.94 295.43-0.26 293.51 0.42 291.35 0.42ZM283.68-12.19L283.68-12.19Q285.56-12.5 287.47-12.5L287.47-12.5 294.37-12.5Q295.14-12.5 295.89-12.45 296.63-12.4 297.4-12.33L297.4-12.33Q296.91-14.76 294.97-16.34 293.02-17.92 290.56-17.92L290.56-17.92Q288.02-17.92 286.11-16.23 284.2-14.55 283.68-12.19ZM316 0.42L316 0.42Q312.74 0.42 310.15-1.04 307.57-2.5 306.09-5.02 304.62-7.53 304.62-10.63L304.62-10.63Q304.62-13.58 306.04-15.99 307.46-18.4 309.88-19.83 312.29-21.25 315.21-21.25L315.21-21.25Q318.09-21.25 320.48-19.88 322.88-18.51 324.3-16.18 325.73-13.85 325.73-10.9L325.73-10.9 325.73-9.38 312.12-9.38Q311.21-9.38 310.28-9.44 309.34-9.51 308.43-9.65L308.43-9.65Q308.82-6.88 310.95-5 313.09-3.13 316.04-3.13L316.04-3.13Q318.02-3.13 319.72-4.03 321.42-4.93 322.46-6.42L322.46-6.42 323.5-2.15Q322.01-0.94 320.08-0.26 318.16 0.42 316 0.42ZM308.33-12.19L308.33-12.19Q310.21-12.5 312.12-12.5L312.12-12.5 319.03-12.5Q319.79-12.5 320.54-12.45 321.28-12.4 322.05-12.33L322.05-12.33Q321.56-14.76 319.62-16.34 317.67-17.92 315.21-17.92L315.21-17.92Q312.67-17.92 310.76-16.23 308.85-14.55 308.33-12.19ZM334.47 0L330.72 0 330.72-20.83 334.2-20.83 334.2-17.01Q335.31-18.85 337.15-19.95 338.99-21.04 341.52-21.04L341.52-21.04 342.46-17.29Q341.8-17.5 340.93-17.5L340.93-17.5Q338.02-17.5 336.24-15.64 334.47-13.78 334.47-10.35L334.47-10.35 334.47 0Z" opacity="1" transform="matrix(1,0,0,1,0,0)" fill="#40e0d0" class="slogan-text-1" data-fill-palette-color="secondary" id="text-1"></path></svg></g></svg></g></svg></g></svg></g><g><svg viewBox="0 0 211.84694980579943 211.84694980579943" height="211.84694980579943" width="211.84694980579943"><g><svg></svg></g><g id="icon-0"><svg viewBox="0 0 211.84694980579943 211.84694980579943" height="211.84694980579943" width="211.84694980579943"><g><rect width="192.62380065675467" height="192.62380065675467" x="9.611574574522379" y="9.611574574522379" fill="#ea6b62" data-fill-palette-color="accent"></rect><rect width="192.62380065675467" height="192.62380065675467" x="19.223149149044758" y="-1.7763568394002505e-15" fill="#ea6b62" opacity="0.5" data-fill-palette-color="accent"></rect></g><g transform="matrix(1,0,0,1,27.46164164149252,36.70107639862137)"><svg viewBox="0 0 156.9236665228144 138.4447970085567" height="138.4447970085567" width="156.9236665228144"><g><svg xmlns="http://www.w3.org/2000/svg" xmlns:xlink="http://www.w3.org/1999/xlink" version="1.1" x="0" y="0" viewBox="5 10.272448979591838 90.02911484120277 79.42755102040816" enable-background="new 0 0 100 100" xml:space="preserve" height="138.4447970085567" width="156.9236665228144" class="icon-dxe-0" data-fill-palette-color="quaternary" id="dxe-0"><path d="M91.7 18.5L59.9 10.3S53.8 9.7 56.6 14.1L63.5 24.6 52 35.4C47.1 32 41.2 30 34.8 30 18.4 30 5 43.4 5 59.9S18.4 89.7 34.8 89.7 64.6 76.3 64.6 59.9C64.6 58.5 64.5 57 64.3 55.6L79 48.3 86.2 59.7S88.2 64 89.5 59.7L94.9 22C95.8 18.9 91.7 18.5 91.7 18.5M10.2 58.9C10.2 44.7 21.7 33.3 35.8 33.3 41 33.3 45.8 34.8 49.8 37.5L36 50.3C33.4 49 30.5 48.3 27.4 48.3 19.8 48.3 13.2 52.8 10.2 59.3zM11.7 66.2C12 57.5 19.1 50.6 27.9 50.6 30.2 50.6 32.3 51.1 34.3 51.9L23.8 61.7C22.8 61.3 21.7 61.2 20.5 61.2 16.7 61.2 13.4 63.3 11.7 66.2M27.8 83H27C25.6 82.5 24.2 81.9 23 81.1 27 80 30 76.6 30.4 72.4L44 65.7V66.8C44 75.8 36.8 83 27.8 83M35.8 84.5H35.4C41.9 81.5 46.4 74.9 46.4 67.3 46.4 66.4 46.3 65.5 46.2 64.6L61.4 57.1C61.4 57.7 61.5 58.3 61.5 58.9 61.5 73.1 50 84.5 35.8 84.5M86.8 54.6L81 44.1 16.6 76.8C14 75 14.7 73.1 14.7 73.1L67.7 24.2 60.9 14 89.8 22.9z" fill="#dfdad6" data-fill-palette-color="quaternary"></path></svg></g></svg></g></svg></g></svg></g></svg></g><defs></defs></svg><rect width="395.52" height="135.31381255789165" fill="none" stroke="none" visibility="hidden"></rect></g></svg></g></svg>